<svg width="64" height="64" fill="none" xmlns="http://www.w3.org/2000/svg"><g clip-path="url(#prefix__clip0_309_862)"><path d="M16.875 2.612c-3.813 1.425-7.25 2.75-7.625 2.95-1.012.513-2.125 1.688-2.65 2.813C6.013 9.612 0 27.712 0 28.25c0 1.125.938 2.462 1.938 2.738.262.062 2.85.312 5.762.524l5.3.413v14.2c0 12.413.025 14.225.188 14.462.387.55 5.374 1.975 9.1 2.588 3.637.613 5.474.75 9.774.75 4.3 0 6.326-.162 9.813-.75 3.625-.612 8.563-2.05 8.938-2.587.162-.238.187-1.963.187-14.463V31.937l5.288-.412c2.9-.225 5.5-.462 5.775-.537 1-.276 1.937-1.6 1.937-2.75 0-.226-1.438-4.726-3.188-9.988-2.35-7.037-3.312-9.775-3.662-10.363-.563-.95-1.563-1.9-2.512-2.375-.388-.2-3.8-1.512-7.588-2.937L40.175 0H23.813l-6.938 2.612zm22-.362c0 .362-.538 1.762-.925 2.437-.825 1.413-2.663 2.725-4.338 3.125-2.312.538-4.8-.15-6.487-1.825-.825-.812-1.288-1.55-1.712-2.7C24.887 1.85 24.113 2 32 2c6.737 0 6.875 0 6.875.25zm-15.575 1c.113.45.438 1.287.725 1.875.425.85.75 1.275 1.6 2.125 1.2 1.2 2.225 1.85 3.688 2.337.887.3 1.187.338 2.687.338 1.5 0 1.8-.038 2.688-.338C36.15 9.1 37.175 8.45 38.374 7.25c.85-.85 1.175-1.275 1.6-2.125.288-.588.612-1.438.725-1.888l.2-.825.9.338c.513.2.9.425.925.537.075.363-.7 2.35-1.313 3.363-2.8 4.688-8.75 6.612-13.75 4.45-2.8-1.225-5.062-3.663-6.062-6.538-.2-.587-.35-1.162-.325-1.275.025-.112.4-.337.913-.537.487-.188.887-.325.887-.325.012.012.113.375.225.825zm-3.7 1.6c1.2 3.962 4.3 7.125 8.287 8.45 1.7.563 3.05.75 4.788.662 2.375-.124 4.55-.837 6.5-2.137 2.463-1.637 4.35-4.15 5.213-6.95.162-.513.3-.963.312-.975.063-.088 8.875 3.275 9.3 3.537.563.35 1.3 1.175 1.6 1.775.137.263 1.637 4.65 3.337 9.763 2.15 6.45 3.063 9.375 3.013 9.587a.812.812 0 01-.313.438c-.212.1-9.187.875-10.262.875H51V22.613l-.313-.3c-.4-.413-.974-.413-1.374 0l-.313.3v36.724l-1.275.388c-3.1.95-6.225 1.575-9.875 1.987-2.675.3-9.025.3-11.7 0-3.625-.412-6.462-.975-9.612-1.912L15 59.338V22.611l-.325-.324c-.263-.263-.4-.3-.775-.238-.9.137-.9.162-.9 4.212v3.613h-.338c-1.05 0-10.1-.775-10.3-.875a.812.812 0 01-.312-.438c-.05-.212.863-3.137 3.013-9.587 1.7-5.113 3.2-9.5 3.337-9.763.338-.675 1.175-1.562 1.787-1.875.5-.262 8.763-3.425 9-3.45.075 0 .263.425.413.963z" fill="#8f8f8f"/></g><defs><clipPath id="prefix__clip0_309_862"><path fill="#fff" d="M0 0h64v64H0z"/></clipPath></defs></svg>